<?xml version="1.0" encoding="UTF-8" standalone="no"?>
<!-- Created with Inkscape (http://www.inkscape.org/) -->

<svg
   version="1.0"
   x="0.00000000"
   y="0.00000000"
   width="280"
   height="110"
   id="pekwm-logo"
   sodipodi:version="0.32"
   inkscape:version="1.2.1 (9c6d41e410, 2022-07-14)"
   sodipodi:docname="pekwm_logo.svg"
   inkscape:output_extension="org.inkscape.output.svg.inkscape"
   xmlns:inkscape="http://www.inkscape.org/namespaces/inkscape"
   xmlns:sodipodi="http://sodipodi.sourceforge.net/DTD/sodipodi-0.dtd"
   xmlns:xlink="http://www.w3.org/1999/xlink"
   xmlns="http://www.w3.org/2000/svg"
   xmlns:svg="http://www.w3.org/2000/svg"
   xmlns:rdf="http://www.w3.org/1999/02/22-rdf-syntax-ns#"
   xmlns:cc="http://creativecommons.org/ns#"
   xmlns:dc="http://purl.org/dc/elements/1.1/">
  <metadata
     id="metadata7">
    <rdf:RDF>
      <cc:Work
         rdf:about="">
        <dc:format>image/svg+xml</dc:format>
        <dc:type
           rdf:resource="http://purl.org/dc/dcmitype/StillImage" />
      </cc:Work>
    </rdf:RDF>
  </metadata>
  <sodipodi:namedview
     id="base"
     pagecolor="#ffffff"
     bordercolor="#666666"
     borderopacity="1.0"
     inkscape:pageopacity="0.0"
     inkscape:pageshadow="2"
     inkscape:zoom="2.8849383"
     inkscape:cx="136.39806"
     inkscape:cy="72.791851"
     inkscape:window-width="1919"
     inkscape:window-height="1159"
     inkscape:window-x="401"
     inkscape:window-y="105"
     inkscape:current-layer="pekwm-logo"
     showgrid="false"
     inkscape:showpageshadow="2"
     inkscape:pagecheckerboard="0"
     inkscape:deskcolor="#d1d1d1"
     inkscape:window-maximized="0" />
  <defs
     id="defs3">
    <linearGradient
       id="linearGradient1231">
      <stop
         style="stop-color:#243346;stop-opacity:1;"
         offset="0"
         id="stop1227" />
      <stop
         style="stop-color:#adadb5;stop-opacity:1;"
         offset="1"
         id="stop1229" />
    </linearGradient>
    <inkscape:perspective
       sodipodi:type="inkscape:persp3d"
       inkscape:vp_x="0 : 526.18109 : 1"
       inkscape:vp_y="0 : 1000 : 0"
       inkscape:vp_z="744.09448 : 526.18109 : 1"
       inkscape:persp3d-origin="372.04724 : 350.78739 : 1"
       id="perspective2459" />
    <linearGradient
       id="linearGradient4187">
      <stop
         style="stop-color:#ec6d08;stop-opacity:1.0000000;"
         offset="0.00000000"
         id="stop4188" />
      <stop
         style="stop-color:#ff9009;stop-opacity:1.0000000;"
         offset="1.0000000"
         id="stop4189" />
    </linearGradient>
    <linearGradient
       inkscape:collect="always"
       xlink:href="#linearGradient4187"
       id="linearGradient4190"
       x1="200.04207"
       y1="226.20767"
       x2="287.54208"
       y2="226.20767"
       gradientUnits="userSpaceOnUse" />
    <linearGradient
       inkscape:collect="always"
       xlink:href="#linearGradient4187"
       id="linearGradient6077"
       gradientUnits="userSpaceOnUse"
       x1="200.04207"
       y1="226.20767"
       x2="287.54208"
       y2="226.20767"
       gradientTransform="translate(278.2139,-127.828)" />
    <linearGradient
       inkscape:collect="always"
       xlink:href="#linearGradient4187"
       id="linearGradient6094"
       gradientUnits="userSpaceOnUse"
       gradientTransform="translate(278.2139,-127.828)"
       x1="200.04207"
       y1="226.20767"
       x2="287.54208"
       y2="226.20767" />
    <linearGradient
       inkscape:collect="always"
       xlink:href="#linearGradient1231"
       id="linearGradient1110"
       gradientUnits="userSpaceOnUse"
       x1="200.04207"
       y1="226.20767"
       x2="287.54208"
       y2="226.20767"
       gradientTransform="translate(-180.24649,-171.92742)" />
  </defs>
  <rect
     style="fill:#ffffff;fill-opacity:1;fill-rule:nonzero;stroke:#243346;stroke-width:0.5;stroke-linecap:butt;stroke-linejoin:round;marker:none;marker-start:none;marker-mid:none;marker-end:none;stroke-miterlimit:4;stroke-dasharray:none;stroke-dashoffset:0;stroke-opacity:1;visibility:visible;display:block"
     id="rect2944"
     rx="1.25"
     ry="1.25"
     width="87.5"
     height="87.5"
     x="19.795582"
     y="10.530253" />
  <path
     style="fill:url(#linearGradient1110);fill-opacity:1;fill-rule:nonzero;stroke:none;stroke-width:0.34450695;stroke-linecap:butt;stroke-linejoin:round;marker:none;marker-start:none;marker-mid:none;marker-end:none;stroke-miterlimit:4;stroke-dashoffset:0;stroke-opacity:1;visibility:visible;display:block"
     d="M 21.034763,10.541331 C 20.342263,10.541331 19.784763,11.098831 19.784763,11.791331 L 19.784763,13.666331 C 20.568123,11.927961 22.286603,10.697591 24.316013,10.697581 C 27.076013,10.697581 29.316013,12.937591 29.316013,15.697581 C 29.316013,18.457571 27.076013,20.697591 24.316013,20.697581 C 22.286603,20.697581 20.568123,19.467201 19.784763,17.728831 L 19.784763,36.447581 C 21.246963,36.765601 22.758483,36.947581 24.316013,36.947581 C 36.053783,36.947581 45.568463,27.432931 45.566013,15.697581 C 45.566383,13.908281 45.263533,12.201531 44.847263,10.541331 L 21.034763,10.541331 z M 60.034763,10.541331 C 60.278153,12.238531 60.566383,13.933001 60.566013,15.697581 C 60.568333,26.834371 55.439043,36.672731 47.534763,43.322581 C 65.682133,45.307341 79.851143,60.525551 79.847263,79.197581 C 79.848703,86.120361 77.807913,92.539111 74.441013,98.041331 L 85.816013,98.041331 C 89.466383,88.054111 97.304173,80.178261 107.28476,76.510081 L 107.28476,53.072581 C 88.359253,51.859191 73.343273,36.269381 73.347263,17.041331 C 73.346803,14.817351 73.620303,12.654741 74.003513,10.541331 L 60.034763,10.541331 z M 89.472263,10.541331 C 88.804493,12.604731 88.346793,14.755531 88.347263,17.041331 C 88.344993,27.983861 96.651103,36.873641 107.28476,38.041331 L 107.28476,21.416331 C 105.71048,20.574061 104.59726,18.950461 104.59726,17.041331 C 104.59727,15.133681 105.71248,13.540461 107.28476,12.697581 L 107.28476,11.791331 C 107.28476,11.098831 106.72728,10.541331 106.03476,10.541331 L 89.472263,10.541331 z M 24.316013,14.447581 C 23.626013,14.447581 23.066013,15.007591 23.066013,15.697581 C 23.066013,16.387581 23.626013,16.947591 24.316013,16.947581 C 25.006013,16.947581 25.566013,16.387591 25.566013,15.697581 C 25.566013,15.007581 25.006013,14.447591 24.316013,14.447581 z M 19.784763,51.447581 L 19.784763,52.197581 C 20.000383,52.007391 20.158563,51.757851 20.378513,51.572581 C 20.173983,51.550211 19.988273,51.473301 19.784763,51.447581 z M 43.597263,57.947581 C 31.859483,57.947581 22.344843,67.462261 22.347263,79.197581 C 22.345553,87.438401 27.082403,94.516361 33.941013,98.041331 L 53.253513,98.041331 C 60.112123,94.516351 64.848983,87.438391 64.847263,79.197581 C 64.849703,67.462271 55.335033,57.947571 43.597263,57.947581 z M 43.597263,74.197581 C 46.357263,74.197581 48.597263,76.437581 48.597263,79.197581 C 48.597263,81.957571 46.357263,84.197581 43.597263,84.197581 C 40.837263,84.197581 38.597263,81.957581 38.597263,79.197581 C 38.597273,76.437581 40.837263,74.197581 43.597263,74.197581 z M 43.597263,77.947581 C 42.907263,77.947581 42.347263,78.507581 42.347263,79.197581 C 42.347263,79.887581 42.907263,80.447581 43.597263,80.447581 C 44.287263,80.447581 44.847263,79.887581 44.847263,79.197581 C 44.847263,78.507581 44.287263,77.947581 43.597263,77.947581 z M 107.28476,93.322581 C 105.46719,94.649501 103.85086,96.215581 102.53476,98.041331 L 106.03476,98.041331 C 106.72726,98.041331 107.28478,97.483831 107.28476,96.791331 L 107.28476,93.322581 z"
     id="rect1061" />
  <path
     style="font-size:64px;font-style:normal;font-variant:normal;font-weight:normal;font-stretch:normal;writing-mode:lr-tb;text-anchor:start;fill:#243346;fill-opacity:1;stroke:none;stroke-width:1pt;stroke-linecap:butt;stroke-linejoin:miter;stroke-opacity:1;font-family:Arial Black"
     d="M 122.72104,11.220931 L 146.25229,11.220931 C 151.37726,11.220981 155.21059,12.439731 157.75229,14.877181 C 160.31475,17.314721 161.596,20.783471 161.59604,25.283431 C 161.596,29.908461 160.20016,33.523041 157.40854,36.127181 C 154.63767,38.731371 150.39809,40.033451 144.68979,40.033431 L 136.93979,40.033431 L 136.93979,57.033431 L 122.72104,57.033431 L 122.72104,11.220931 M 136.93979,30.752181 L 140.40854,30.752181 C 143.13768,30.752211 145.05435,30.283461 146.15854,29.345931 C 147.26268,28.387631 147.81476,27.168881 147.81479,25.689681 C 147.81476,24.252221 147.33559,23.033471 146.37729,22.033431 C 145.41893,21.033471 143.61685,20.533471 140.97104,20.533431 L 136.93979,20.533431 L 136.93979,30.752181"
     id="text4193" />
  <path
     style="font-size:64px;font-style:normal;font-variant:normal;font-weight:normal;font-stretch:normal;writing-mode:lr-tb;text-anchor:start;fill:#243346;fill-opacity:1;stroke:none;stroke-width:1pt;stroke-linecap:butt;stroke-linejoin:miter;stroke-opacity:1;font-family:Arial Black"
     d="M 204.30505,11.220931 L 218.4613,11.220931 L 218.4613,28.533431 L 233.30505,11.220931 L 252.11755,11.220931 L 235.43005,28.502181 L 252.86755,57.033431 L 235.43005,57.033431 L 225.7738,38.189681 L 218.4613,45.845931 L 218.4613,57.033431 L 204.30505,57.033431 L 204.30505,11.220931"
     id="text4196" />
  <path
     style="font-size:64px;font-style:normal;font-variant:normal;font-weight:normal;font-stretch:normal;writing-mode:lr-tb;text-anchor:start;fill:#243346;fill-opacity:1;stroke:none;stroke-width:1pt;stroke-linecap:butt;stroke-linejoin:miter;stroke-opacity:1;font-family:Arial"
     d="M 192.24744,45.595911 L 198.05994,46.314661 C 197.14324,49.710501 195.44533,52.345921 192.96619,54.220911 C 190.487,56.095911 187.32034,57.033411 183.46619,57.033411 C 178.61201,57.033411 174.75785,55.543831 171.90369,52.564661 C 169.07036,49.564671 167.65369,45.366761 167.65369,39.970911 C 167.65369,34.387601 169.09119,30.054271 171.96619,26.970911 C 174.84118,23.887611 178.57035,22.345951 183.15369,22.345911 C 187.59117,22.345951 191.21617,23.856361 194.02869,26.877161 C 196.84116,29.898021 198.24741,34.148021 198.24744,39.627161 C 198.24741,39.960511 198.23699,40.460511 198.21619,41.127161 L 173.46619,41.127161 C 173.67452,44.773011 174.70577,47.564671 176.55994,49.502161 C 178.4141,51.439671 180.72659,52.408421 183.49744,52.408411 C 185.55992,52.408421 187.32034,51.866751 188.77869,50.783411 C 190.237,49.700091 191.39325,47.970921 192.24744,45.595911 M 173.77869,36.502161 L 192.30994,36.502161 C 192.05992,33.710521 191.35158,31.616771 190.18494,30.220911 C 188.39325,28.054271 186.07034,26.970941 183.21619,26.970911 C 180.63284,26.970941 178.45576,27.835521 176.68494,29.564661 C 174.93493,31.293851 173.96618,33.606351 173.77869,36.502161"
     id="text4199" />
  <path
     d="M 127.35688,94.289221 C 123.22204,91.944501 122.46848,90.296351 122.44453,83.545251 C 122.42392,77.734611 122.57857,77.706511 126.29961,77.906471 C 130.5599,78.134771 130.12518,78.995581 129.89629,81.876761 C 129.10531,91.832981 132.22826,93.920961 140.43064,88.919971 C 147.37475,84.686151 147.44074,84.708401 150.75558,89.447941 C 152.34444,91.666701 154.84903,91.455171 157.51076,90.816951 C 165.55397,88.661781 172.0731,84.246851 179.54839,77.492001 C 190.54145,66.498941 193.03297,66.988441 182.28202,77.739391 C 172.17615,87.845261 158.31154,95.905531 156.52457,95.973721 C 154.7376,96.041911 152.42405,94.532411 150.54523,92.380861 C 148.66641,90.229311 147.04621,88.174321 146.24959,88.106131 C 145.45297,88.037941 144.25663,89.848241 140.03784,92.380861 C 135.88374,94.874641 131.37271,96.566451 127.35688,94.289221 z M 183.57554,92.516991 C 182.10827,88.693371 184.86837,87.345831 188.7898,84.787651 C 192.61506,82.292191 196.54863,81.569181 206.02053,73.981691 C 212.58869,68.454951 216.97042,69.815551 219.02994,78.021321 C 221.26116,84.605701 221.88436,83.824751 227.08474,79.074921 C 229.64196,76.739271 231.47015,74.691911 233.13241,74.828281 C 236.60255,74.964651 240.49178,79.938771 242.88766,84.571881 C 246.87652,91.539461 250.00113,92.221191 256.36297,87.893541 C 258.17992,86.152301 259.63058,84.694521 260.21514,85.280421 C 261.84737,86.916431 254.29872,93.154331 250.05117,93.154331 C 245.93999,93.154331 244.19068,90.681621 240.2078,86.810701 C 236.61788,83.321701 235.23854,80.330701 233.71812,80.330701 C 232.6068,80.330701 230.6425,80.781181 228.67115,82.331851 C 221.86452,88.658841 220.53889,86.579001 217.28167,80.194321 C 215.69949,77.092991 213.87745,74.691911 212.79211,74.691911 C 211.70676,74.691911 205.9587,78.749311 196.06057,87.107851 C 186.71837,94.996911 184.43043,94.174431 183.57554,92.516991 z"
     id="path5438"
     style="fill:#494949;fill-opacity:1"
     sodipodi:nodetypes="ccccccccczzzzcczccccccczcccczcc" />
</svg>
