/* XPM */
static char * b_bottom_l_xpm[] = {
"5 5 5 1",
" 	c None",
".	c #000000",
"+	c #E8ECE8",
"@	c #A8A8B0",
"#	c #707470",
".+@#.",
".+@#+",
".+@@@",
".+###",
"....."};
