/* XPM */
static char * b_top_r_xpm[] = {
"5 5 5 1",
" 	c None",
".	c #000000",
"+	c #E8ECE8",
"@	c #707470",
"#	c #A8A8B0",
".....",
"+++@.",
"###@.",
"@+#@.",
".+#@."};
