/* XPM */
static char * btn_min_un_xpm[] = {
"16 14 60 1",
" 	c None",
".	c #252525",
"+	c #909090",
"@	c #272727",
"#	c #929292",
"$	c #B2B2B2",
"%	c #B7B7B7",
"&	c #BCBCBC",
"*	c #BFBFBF",
"=	c #C4C4C4",
"-	c #C8C8C8",
";	c #CCCCCC",
">	c #B0B0B0",
",	c #B1B1B1",
"'	c #BBBBBB",
")	c #C0C0C0",
"!	c #C9C9C9",
"~	c #CFCFCF",
"{	c #242424",
"]	c #AFAFAF",
"^	c #B3B3B3",
"/	c #CDCDCD",
"(	c #D1D1D1",
"_	c #D5D5D5",
":	c #B6B6B6",
"<	c #C3C3C3",
"[	c #C7C7C7",
"}	c #CBCBCB",
"|	c #D2D2D2",
"1	c #D7D7D7",
"2	c #DADADA",
"3	c #BABABA",
"4	c #383838",
"5	c #3A3A3A",
"6	c #3B3B3B",
"7	c #3C3C3C",
"8	c #3D3D3D",
"9	c #D3D3D3",
"0	c #D6D6D6",
"a	c #DDDDDD",
"b	c #D0D0D0",
"c	c #3F3F3F",
"d	c #DBDBDB",
"e	c #E1E1E1",
"f	c #C6C6C6",
"g	c #3E3E3E",
"h	c #404040",
"i	c #DCDCDC",
"j	c #DFDFDF",
"k	c #E2E2E2",
"l	c #E5E5E5",
"m	c #CACACA",
"n	c #CECECE",
"o	c #D9D9D9",
"p	c #E0E0E0",
"q	c #E3E3E3",
"r	c #E4E4E4",
"s	c #E8E8E8",
"t	c #8F8F8F",
"u	c #262626",
"                ",
"  ............  ",
" .++++++++++++. ",
" @#$$$$%&*=-;#@ ",
" .+>>,%')=!;~+. ",
" {+]^%')=-/(_+{ ",
" @#:'*<[}~|12#@ ",
" .+345678902a+. ",
" {+)5-;bc1dae+{ ",
" @#f78gchijkl#@ ",
" {+mn|_oipqrs+{ ",
" {tttttttttttt{ ",
"  uuuuuuuuuuuu  ",
"                "};
