/* XPM */
static char * btn_close_fo_xpm[] = {
"16 14 63 1",
" 	c None",
".	c #191923",
"+	c #84848E",
"@	c #1A1A25",
"#	c #868691",
"$	c #ACACB5",
"%	c #ADADB6",
"&	c #AFAFB8",
"*	c #B3B3BB",
"=	c #B5B5BD",
"-	c #B8B8C0",
";	c #BBBBC2",
">	c #BEBEC5",
",	c #ABABB3",
"'	c #000000",
")	c #AFAFB7",
"!	c #B2B2B9",
"~	c #B5B5BC",
"{	c #B7B7BE",
"]	c #BDBDC3",
"^	c #C0C0C6",
"/	c #181823",
"(	c #AAAAB3",
"_	c #ADADB5",
":	c #B8B8BF",
"<	c #C1C1C7",
"[	c #C4C4CA",
"}	c #B1B1BA",
"|	c #B7B7BF",
"1	c #BFBFC6",
"2	c #C3C3CA",
"3	c #C6C6CC",
"4	c #C9C9CF",
"5	c #B1B1B9",
"6	c #B4B4BB",
"7	c #BABAC0",
"8	c #C2C2C8",
"9	c #C6C6CB",
"0	c #C9C9CE",
"a	c #CCCCD0",
"b	c #181822",
"c	c #B4B4BC",
"d	c #BABAC1",
"e	c #C3C3C9",
"f	c #C8C8CE",
"g	c #CBCBD0",
"h	c #CECED3",
"i	c #868690",
"j	c #BDBDC4",
"k	c #C2C2C9",
"l	c #C5C5CC",
"m	c #CBCBD1",
"n	c #D1D1D6",
"o	c #D4D4D8",
"p	c #BFBFC5",
"q	c #C1C1C8",
"r	c #C7C7CD",
"s	c #CACACF",
"t	c #CDCDD2",
"u	c #D0D0D5",
"v	c #D3D3D7",
"w	c #D6D6DA",
"x	c #83838D",
"                ",
"  ............  ",
" .++++++++++++. ",
" @#$$$%&*=-;>#@ ",
" .+,,')!~{']^+. ",
" /+(_)'~:'><[+/ ",
" @#)}=|''1234#@ ",
" .+56{7''890a+. ",
" b+c|d'^e'fgh+b ",
" @idj'klfm'noi@ ",
" b+;pq[rstuvw+b ",
" bxxxxxxxxxxxxb ",
"  @@@@@@@@@@@@  ",
"                "};
