/* XPM */
static char * btn_max_fo_xpm[] = {
"16 14 69 1",
" 	c None",
".	c #191923",
"+	c #84848E",
"@	c #1A1A25",
"#	c #868691",
"$	c #A5A5B0",
"%	c #A6A6B1",
"&	c #A9A9B3",
"*	c #ACACB6",
"=	c #AFAFB8",
"-	c #B2B2BC",
";	c #B5B5BE",
">	c #B8B8C1",
",	c #A4A4AE",
"'	c #303033",
")	c #313134",
"!	c #323235",
"~	c #333336",
"{	c #343437",
"]	c #353538",
"^	c #363639",
"/	c #BBBBC2",
"(	c #181823",
"_	c #A3A3AE",
":	c #A8A8B2",
"<	c #ABABB5",
"[	c #AEAEB7",
"}	c #B2B2BB",
"|	c #B5B5BD",
"1	c #B8B8C0",
"2	c #38383A",
"3	c #BFBFC6",
"4	c #A8A8B3",
"5	c #343436",
"6	c #373739",
"7	c #38383B",
"8	c #39393B",
"9	c #C4C4CB",
"0	c #ABABB4",
"a	c #B1B1BA",
"b	c #B4B4BC",
"c	c #BABAC2",
"d	c #BDBDC5",
"e	c #C1C1C8",
"f	c #3A3A3C",
"g	c #C7C7CD",
"h	c #181822",
"i	c #353537",
"j	c #B7B7BF",
"k	c #BBBBC3",
"l	c #BEBEC5",
"m	c #3B3B3D",
"n	c #CACAD0",
"o	c #868690",
"p	c #B4B4BD",
"q	c #3C3C3D",
"r	c #3D3D3E",
"s	c #D0D0D6",
"t	c #B6B6BE",
"u	c #BABAC1",
"v	c #BCBCC4",
"w	c #C0C0C6",
"x	c #C3C3C9",
"y	c #C6C6CC",
"z	c #C9C9CF",
"A	c #CCCCD2",
"B	c #CFCFD4",
"C	c #D2D2D7",
"D	c #83838D",
"                ",
"  ............  ",
" .++++++++++++. ",
" @#$$$%&*=-;>#@ ",
" .+,')!!~{]^/+. ",
" (+_):<[}|123+( ",
" @#4!5{]^6789#@ ",
" .+0~ab1cdefg+. ",
" h+[i|jkle9mn+h ",
" @op^628fmqrso@ ",
" h+tuvwxyzABC+h ",
" hDDDDDDDDDDDDh ",
"  @@@@@@@@@@@@  ",
"                "};
