/* XPM */
static char * btn_close_un_xpm[] = {
"16 14 46 1",
" 	c None",
".	c #252525",
"+	c #7D7D7D",
"@	c #909090",
"#	c #272727",
"$	c #929292",
"%	c #B2B2B2",
"&	c #B5B5B5",
"*	c #B8B8B8",
"=	c #BABABA",
"-	c #BDBDBD",
";	c #BFBFBF",
">	c #C2C2C2",
",	c #B0B0B0",
"'	c #000000",
")	c #B4B4B4",
"!	c #B6B6B6",
"~	c #B9B9B9",
"{	c #BBBBBB",
"]	c #C1C1C1",
"^	c #C4C4C4",
"/	c #242424",
"(	c #AFAFAF",
"_	c #B1B1B1",
":	c #BCBCBC",
"<	c #C8C8C8",
"[	c #B7B7B7",
"}	c #C7C7C7",
"|	c #CACACA",
"1	c #CCCCCC",
"2	c #BEBEBE",
"3	c #C6C6C6",
"4	c #C9C9C9",
"5	c #CECECE",
"6	c #D1D1D1",
"7	c #D4D4D4",
"8	c #D6D6D6",
"9	c #C3C3C3",
"0	c #C5C5C5",
"a	c #CDCDCD",
"b	c #D0D0D0",
"c	c #D3D3D3",
"d	c #D5D5D5",
"e	c #D8D8D8",
"f	c #8F8F8F",
"g	c #262626",
"                ",
"  ............+ ",
" .@@@@@@@@@@@@. ",
" #$%%%%&*=-;>$# ",
" .@,,')!~{']^@. ",
" /@(_)'~:'>^<@/ ",
" #$)[=:''^}|1$# ",
" .@!*{2''3415@. ",
" /@~:2'^}'156@/ ",
" #$2]'3415'78$# ",
" /@;90<|abcde@/ ",
" /ffffffffffff/ ",
"  gggggggggggg  ",
"                "};
