/* XPM */
static char * btn_b_left_un_xpm[] = {
"15 14 4 1",
" 	c None",
".	c #A0A0A0",
"+	c #2D2D2D",
"@	c #707070",
".............+.",
".@@@@@@@@@@@@+.",
".@@@@@@@@@@@@+.",
".@@@@@@@@@@@@+.",
".@@@......@@@+.",
".@@@......@@@+.",
".@@@.@@@@.@@@+.",
".@@@.@@@@.@@@+.",
".@@@.@@@@.@@@+.",
".@@@......@@@+.",
".@@@@@@@@@@@@+.",
".@@@@@@@@@@@@+.",
".@@@@@@@@@@@@+.",
".+++++++++++++."};
