/* XPM */
static char * btn_min_fo_xpm[] = {
"16 14 68 1",
" 	c None",
".	c #191923",
"+	c #84848E",
"@	c #1A1A25",
"#	c #868691",
"$	c #A5A5B0",
"%	c #A6A6B1",
"&	c #ACACB5",
"*	c #B1B1BA",
"=	c #B6B6BE",
"-	c #BBBBC3",
";	c #BFBFC7",
">	c #C4C4CB",
",	c #A4A4AE",
"'	c #A6A6AF",
")	c #ABABB5",
"!	c #B0B0BA",
"~	c #B5B5BE",
"{	c #BABAC2",
"]	c #C0C0C7",
"^	c #C9C9CE",
"/	c #181823",
"(	c #A3A3AE",
"_	c #A8A8B1",
":	c #BCBCC4",
"<	c #C5C5CB",
"[	c #CACAD0",
"}	c #CECED4",
"|	c #AAAAB5",
"1	c #AFAFB9",
"2	c #B9B9C2",
"3	c #C3C3CA",
"4	c #C7C7CD",
"5	c #CCCCD2",
"6	c #D0D0D6",
"7	c #D4D4D9",
"8	c #B0B0B8",
"9	c #353538",
"0	c #373739",
"a	c #38383A",
"b	c #3A3A3C",
"c	c #3B3B3D",
"d	c #D1D1D6",
"e	c #D5D5DA",
"f	c #D8D8DC",
"g	c #181822",
"h	c #C4C4CA",
"i	c #C9C9CF",
"j	c #3D3D3E",
"k	c #D9D9DD",
"l	c #DCDCE0",
"m	c #868690",
"n	c #BEBEC6",
"o	c #39393C",
"p	c #3C3C3E",
"q	c #3D3D3F",
"r	c #3F3F40",
"s	c #DBDBDF",
"t	c #DFDFE2",
"u	c #E2E2E5",
"v	c #C2C2C9",
"w	c #CBCBD1",
"x	c #D0D0D4",
"y	c #D4D4D8",
"z	c #D7D7DB",
"A	c #DEDEE2",
"B	c #E5E5E7",
"C	c #83838D",
"                ",
"  ............  ",
" .++++++++++++. ",
" @#$$$%&*=-;>#@ ",
" .+,,')!~{]>^+. ",
" /+(_&*=:]<[}+/ ",
" @#|1~2;34567#@ ",
" .+890abc5def+. ",
" g+=0]hijdekl+g ",
" @mnocpqrfstum@ ",
" g+v4wxyzsAuB+g ",
" gCCCCCCCCCCCCg ",
"  @@@@@@@@@@@@  ",
"                "};
