/* XPM */
static char * btn_min_pr_xpm[] = {
"16 14 75 1",
" 	c None",
".	c #37374D",
"+	c #6D6D83",
"@	c #3A3A52",
"#	c #707088",
"$	c #808098",
"%	c #83839A",
"&	c #85859D",
"*	c #88889E",
"=	c #8A8AA1",
"-	c #8D8DA3",
";	c #8F8FA5",
">	c #7C7C92",
",	c #7D7D93",
"'	c #808096",
")	c #838398",
"!	c #86869B",
"~	c #88889D",
"{	c #8B8B9F",
"]	c #8D8DA1",
"^	c #8F8FA3",
"/	c #35354C",
"(	c #6B6B82",
"_	c #7B7B92",
":	c #7F7F96",
"<	c #828298",
"[	c #84849A",
"}	c #87879C",
"|	c #89899E",
"1	c #8C8CA1",
"2	c #8E8EA3",
"3	c #9191A5",
"4	c #82829A",
"5	c #85859C",
"6	c #8A8AA0",
"7	c #8C8CA3",
"8	c #8E8EA4",
"9	c #9090A6",
"0	c #9292A8",
"a	c #9595AA",
"b	c #9797AC",
"c	c #27272D",
"d	c #28282E",
"e	c #29292F",
"f	c #2A2A30",
"g	c #9191A4",
"h	c #9292A6",
"i	c #9494A8",
"j	c #9696A9",
"k	c #35354B",
"l	c #6B6B81",
"m	c #848499",
"n	c #8C8CA0",
"o	c #8E8EA2",
"p	c #9292A5",
"q	c #9494A7",
"r	c #9595A8",
"s	c #9898AB",
"t	c #3A3A51",
"u	c #707087",
"v	c #8C8CA2",
"w	c #2A2A31",
"x	c #2B2B31",
"y	c #2C2C32",
"z	c #2D2D32",
"A	c #9898AD",
"B	c #9A9AAE",
"C	c #9C9CB0",
"D	c #9E9EB1",
"E	c #9393A6",
"F	c #9797AA",
"G	c #9999AC",
"H	c #9A9AAC",
"I	c #9B9BAE",
"J	c #393950",
"                ",
"  ............  ",
" .++++++++++++. ",
" @#$$$$%&*=-;#@ ",
" .+>>,')!~{]^+. ",
" /(_,:<[}|123(/ ",
" @#45*67890ab#@ ",
" .+<cdeefghij+. ",
" klmd|nofpqrslk ",
" tuvfwxyzABCDut ",
" kl{]^gErFGHIlk ",
" kllllllllllllk ",
"  JJJJJJJJJJJJ  ",
"                "};
