/* XPM */
static char * btn_b_right_un_xpm[] = {
"15 14 4 1",
" 	c None",
".	c #2D2D2D",
"+	c #A0A0A0",
"@	c #707070",
".+++++++++++++.",
".+@@@@@@@@@@@@.",
".+@@@@@@@@@@@@.",
".+@@@@@@@@@@@@.",
".+@@@++@@++@@@.",
".+@@@++++++@@@.",
".+@@@@++++@@@@.",
".+@@@@++++@@@@.",
".+@@@++++++@@@.",
".+@@@++@@++@@@.",
".+@@@@@@@@@@@@.",
".+@@@@@@@@@@@@.",
".+@@@@@@@@@@@@.",
".+............."};
