/* XPM */
static char * btn_close_pr_xpm[] = {
"16 14 59 1",
" 	c None",
".	c #37374D",
"+	c #6D6D83",
"@	c #3A3A52",
"#	c #707088",
"$	c #808098",
"%	c #818199",
"&	c #83839B",
"*	c #84849C",
"=	c #86869D",
"-	c #88889E",
";	c #8989A0",
">	c #7C7C92",
",	c #1C1C22",
"'	c #7F7F94",
")	c #808096",
"!	c #818197",
"~	c #838398",
"{	c #1E1E23",
"]	c #86869B",
"^	c #88889D",
"/	c #35354C",
"(	c #6B6B82",
"_	c #7B7B92",
":	c #7C7C93",
"<	c #87879C",
"[	c #1F1F24",
"}	c #89899E",
"|	c #82829A",
"1	c #202025",
"2	c #8E8EA4",
"3	c #8F8FA5",
"4	c #1D1D22",
"5	c #8C8CA1",
"6	c #8E8EA2",
"7	c #35354B",
"8	c #6B6B81",
"9	c #818196",
"0	c #828298",
"a	c #8D8DA1",
"b	c #3A3A51",
"c	c #707087",
"d	c #87879D",
"e	c #88889F",
"f	c #1F1F25",
"g	c #8B8BA1",
"h	c #8D8DA3",
"i	c #8F8FA4",
"j	c #9090A5",
"k	c #212126",
"l	c #9393A8",
"m	c #9595AA",
"n	c #848499",
"o	c #8B8B9F",
"p	c #8C8CA0",
"q	c #8F8FA3",
"r	c #9191A4",
"s	c #9393A6",
"t	c #393950",
"                ",
"  ............  ",
" .++++++++++++. ",
" @#$$$$%&*=-;#@ ",
" .+>>,')!~{]^+. ",
" /(_::,:<[}<}(/ ",
" @#%|||{12323#@ ",
" .+)!!!415656+. ",
" 78900{0a16a687 ",
" bcdefghijklmcb ",
" 78n]<}op6qrs87 ",
" 78888888888887 ",
"  tttttttttttt  ",
"                "};
