/* XPM */
static char * btn_max_pr_xpm[] = {
"16 14 60 1",
" 	c None",
".	c #37374D",
"+	c #6D6D83",
"@	c #3A3A52",
"#	c #707088",
"$	c #808098",
"%	c #818199",
"&	c #83839B",
"*	c #84849C",
"=	c #86869D",
"-	c #88889E",
";	c #8989A0",
">	c #7C7C92",
",	c #24242B",
"'	c #25252B",
")	c #25252C",
"!	c #26262C",
"~	c #26262D",
"{	c #27272D",
"]	c #27272E",
"^	c #88889D",
"/	c #35354C",
"(	c #6B6B82",
"_	c #7B7B92",
":	c #7D7D94",
"<	c #7F7F95",
"[	c #818197",
"}	c #828298",
"|	c #848499",
"1	c #86869B",
"2	c #28282E",
"3	c #89899E",
"4	c #28282F",
"5	c #29292F",
"6	c #292930",
"7	c #2A2A30",
"8	c #8F8FA5",
"9	c #808096",
"0	c #838398",
"a	c #87879C",
"b	c #8B8B9F",
"c	c #8E8EA2",
"d	c #35354B",
"e	c #6B6B81",
"f	c #818196",
"g	c #85859A",
"h	c #8A8A9E",
"i	c #8C8CA0",
"j	c #2A2A2F",
"k	c #3A3A51",
"l	c #707087",
"m	c #87879D",
"n	c #2A2A31",
"o	c #2B2B31",
"p	c #2B2B32",
"q	c #9595AA",
"r	c #8F8FA3",
"s	c #9191A4",
"t	c #9393A6",
"u	c #393950",
"                ",
"  ............  ",
" .++++++++++++. ",
" @#$$$$%&*=-;#@ ",
" .+>,')!~{{]^+. ",
" /(_,:<[}|123(/ ",
" @#%~]]445678#@ ",
" .+9~0|1a3b5c+. ",
" def~|ga^hijced ",
" klm45577nopqlk ",
" de|1a3bicrsted ",
" deeeeeeeeeeeed ",
"  uuuuuuuuuuuu  ",
"                "};
