/* XPM */
static char * btn_b_left_pr_xpm[] = {
"15 14 5 1",
" 	c None",
".	c #362B3A",
"+	c #9D91A3",
"@	c #62456D",
"#	c #CABED1",
".............++",
".@@@@@@@@@@@@++",
".@@@@@@@@@@@@++",
".@@@@@@@@@@@@++",
".@@@######@@@++",
".@@@######@@@++",
".@@@#@@@@#@@@++",
".@@@#@@@@#@@@++",
".@@@#@@@@#@@@++",
".@@@######@@@++",
".@@@@@@@@@@@@++",
".@@@@@@@@@@@@++",
".@@@@@@@@@@@@++",
".++++++++++++++"};
