/* XPM */
static char * btn_max_un_xpm[] = {
"16 14 55 1",
" 	c None",
".	c #252525",
"+	c #909090",
"@	c #272727",
"#	c #929292",
"$	c #B2B2B2",
"%	c #B5B5B5",
"&	c #B8B8B8",
"*	c #BABABA",
"=	c #BDBDBD",
"-	c #BFBFBF",
";	c #C2C2C2",
">	c #B0B0B0",
",	c #343434",
"'	c #353535",
")	c #363636",
"!	c #373737",
"~	c #383838",
"{	c #393939",
"]	c #C4C4C4",
"^	c #242424",
"/	c #AFAFAF",
"(	c #B4B4B4",
"_	c #B7B7B7",
":	c #B9B9B9",
"<	c #BCBCBC",
"[	c #BEBEBE",
"}	c #3A3A3A",
"|	c #C8C8C8",
"1	c #3B3B3B",
"2	c #3C3C3C",
"3	c #CCCCCC",
"4	c #B6B6B6",
"5	c #BBBBBB",
"6	c #C1C1C1",
"7	c #C3C3C3",
"8	c #C6C6C6",
"9	c #C9C9C9",
"0	c #CECECE",
"a	c #C0C0C0",
"b	c #C7C7C7",
"c	c #3D3D3D",
"d	c #D1D1D1",
"e	c #3E3E3E",
"f	c #3F3F3F",
"g	c #D6D6D6",
"h	c #C5C5C5",
"i	c #CACACA",
"j	c #CDCDCD",
"k	c #D0D0D0",
"l	c #D3D3D3",
"m	c #D5D5D5",
"n	c #D8D8D8",
"o	c #8F8F8F",
"p	c #262626",
"                ",
"  ............  ",
" .++++++++++++. ",
" @#$$$$%&*=-;#@ ",
" .+>,,')!!~{]+. ",
" ^+/,(_:<[;}|+^ ",
" @#()!~~{}123#@ ",
" .+4)5[678920+. ",
" ^+:~[a]b93cd+^ ",
" @#[{}112cefg#@ ",
" ^+-7h|ijklmn+^ ",
" ^oooooooooooo^ ",
"  pppppppppppp  ",
"                "};
