/* XPM */
static char * harbour_xpm[] = {
"68 68 33 1",
" 	c None",
".	c #120F15",
"+	c #9BA0A8",
"@	c #4A4A55",
"#	c #717281",
"$	c #878F97",
"%	c #C9C8CE",
"&	c #787B88",
"*	c #CFD2D4",
"=	c #5B5869",
"-	c #827A8C",
";	c #6A6679",
">	c #3B3945",
",	c #93929F",
"'	c #8A8A97",
")	c #82748E",
"!	c #7E758A",
"~	c #2F2E38",
"{	c #F2F2F2",
"]	c #6B6276",
"^	c #92849C",
"/	c #C2BECA",
"(	c #5F616F",
"_	c #726B7C",
":	c #7A828C",
"<	c #8E8597",
"[	c #1C1C1F",
"}	c #9F96A7",
"|	c #787383",
"1	c #838290",
"2	c #989AA6",
"3	c #5B5265",
"4	c #686C78",
"{{{{{{{{{{{{{{{{{{{{{{{{{{{{{{{{{{{{{{{{{{{{{{{{{{{{{{{{{{{{{{{{{{,~",
"{{****%*%***%**%%**%*%%*%%*%%*%%%%%%%%%%%%%%%%/%%%%/%%/%%/%%/%////:[",
"{%++++}+}+}+}2+}}}+},},2,,2,,,,,',^,',''''''''1''1<11<1&11&1:1-1&14~",
"{*+++++++++++}22,2,22+,2,+,22,$,,,$,$$$'''<$1'<'1$1$1''11:<:&1&:&&4[",
"{*++}+++}+}+2222+,2,2},},,,,,,,,,,^,^$<''$''$'$<:<1<1:111:11)1!---(~",
"{*+++++}+}+}2}22,+,+,2,,,,,,,,$,$,$,$^$''<<$<$1$11:$'1:11::11::-&!([",
"{*}+}+}+}+},}+2,,},},,,,,,,'',^$^,<$<$^$'11''<:11^1:11111-!-!:|1!&(~",
"{*+++++++}+}2,2+,+$+,,,+,$$,$,$,$$$^$<$1''<$1$1$:$11111::::::!&::|([",
"{*}+}+}+}2}+2,,},},}$},,,''2$,<,'$<$<$'$'''<:<1^1111:11--&--!:):!&(~",
"{*+++}+}22+222}2,2,,,,$,,,,$,,$,$<$<$<''''''<11$:1111::11:&-&!&!&|([",
"{*}}++}},2},,},2,,,,,,,',^,'',<$'$'$<<11<:::1<:11!111----:!&!:|:&&=[",
"{*++222}+,+,2,2,,,,,,,,',,$,$$$<'<$:$<$1'''$:'111-1:::::&|&&&|&!&#([",
"{%++}2}22,2,22,2,,,,,',$,',''$'$''''1''1111'1':1111&-&-&&-!&-&&&&#=[",
"{*}222222,,,,,,,,,,$,$,,''$,''''''''$''<1111:1111:1&1&----&&&&|&&#=[",
"{*}}}22,2,2,22$,,,,$,',$^',$<<'''<'<'1':<111-11-1&1&:&&&&&&&&&&#&#=[",
"{%},22},2,2,,,,,,,,<,',','''<1<'<:<1<:'11<1:1-:-:-:-&-&&!&|&&&|#|#=[",
"{*22+,2,2,2,,,,,$$,$,$,$,$''''':''':$:$'':::11:&1&:&-&!&&-&!&#&#&#([",
"{%22,,},},$,,,,,,',,,^'^'<'''$<<'$<1<11:111111-!:-&&-!&&|&|&|#|#|#=[",
"{*222,,,+,,,,,$$,,,$^$'$<'''<<'1':$:1111111-::1::&!&-&&&&&&#&#|#&#([",
"{%,,},,,,,,$,,,''^$^,^$<<1''<:<1<111111:--&-1!1|&!&!&&|_&&|##_|###3[",
"{*2,2,+,,,,,$$,,,$,$,$^$<$1$$1$:$111$1::::::1:::!:!&!&-&&&&#:#:###=[",
"{%},2,,,,,,,','','$<$<$<$<1111<1<1^1:1--11-!&!&|:|:&&|&||#|#|#####=[",
"{%,,+,,,,,$,,,$'<$^$<$<$'$<''1$:11111111::::::!&!&!&-&&&####&##4#_=[",
"{%,,,$,,,,',^'$^,<$<1<$<11<<11111111--------&!&&&|#|#|###||###;###3[",
"{*+,,,,$$,$,$'$$,$''1''$1':'$11111:::&:::::&&&!&&&|&#&#&&#&###__#4=[",
"{%,$,2,,','$,^''$1''$':<1'11:1111:&-:1---&&&&&&&&&&-#|#######_##4#=[",
"{*,,$,$,$,'^$^''$$<'''111''11111:111:-&:&&-&|&|&|&&&#|#|######4#4#=[",
"{%$,,,$,'$,$<$'<1<$':'1<11:11111&1--&--&&&&&&&|&|&#&#||###_4_#4444@[",
"{%,,$,$,<'<'''$<<''11'1'111111:1!1&1&:&--!&&&&_&#|#&####4#_#4#_44;@[",
"{%,,$$',$'$'''''''1$1$:''11111&:::&1&::&&&&##&&&#&#&#&&##_|44_4#4_@[",
"{%,,',<$<'''''''''111<1:::1::1)11-!-!&&|&!&|||&|#|4|#4#####__#;4;_@[",
"{%$,$,$^$^'<'''':'111$111111&11:&!:-&!&&&&!&|&#&####_#4##44#4#4;4_@[",
"{/',<$<$^$<11''11<1^:1:111:1!1):)1|:!&!&&|||#|##_####____#;#]4]4;4@[",
"{%$,$<$<$1$''''$''1$11111:1&:::::::!&!&##&&&#:###:#4#4#4444#4;4#4;@[",
"{%<$<$^$'$<$'1111<:1:11:1!1))-)-!&|:!:&||_#|#|#|###;4##4_#;4]#]4;4@.",
"{%$<$<$<$<$:''11:$11111:&11:&-&!:!&|:#&!&&&&|_########4#444;4;4;4;@[",
"{/'''$<1<$'<::1<11:111:--!&&-&-&|:!&|#||||####_##;__4_4444;4;4;(]]@[",
"{%'<$1$<$1$1'1''11111:1&::&-::&&&|&&&#&#&#4####4#4#4##4#444#4(4]4(@[",
"{%''''1''1'1111::111:-:-1--!&&|&&&|#&#|##&_|_##;###;_444;4444444;(@.",
"{%''''$''111''1111::1&1&!&-&&&&&&&&#_#&##_|####_#4_444;;_;444;4(4(@[",
"{%1<11':':<11':111-&1&:&&&&-&&&&|#&#|#&######44_#;__44_;4;]];(4(;(@[",
"{%'<'1<:'1<11:--1::&1-&&&!&&!&|&&#&||#####4#_4#;#4444444;44(4(;(((@[",
"{%'''1$1$:$:11111&1&:&)&&&!&&&|#&#&#&#####44_##4#444_444;(;;4(4;((@.",
"{/''<111<11111:1&-1&&!1!&|&&|&|#|_&#######_4#4_;__4_;;44;(44;(](];>[",
"{%':$111111111:::&-&!&!&-&&&&&&#|#&#4##4##_##4;4]4;4_4;;4]4(4(((((@.",
"{%1111<11:)&----1&&&&!&!&&&&|#|#!#####_#4__;4;_]4;4;4;(]](](((((((>[",
"{%$111$:&111::&::&!:!:|&!&#&#&&#&######4#4###4#4;4;4(4(44(4(](4(((@[",
"{%11<111):11---!&&&|:|:&&||||_####4#4#;4;__;_44;_;4;]]](((](](((=(>.",
"{/11111111:::::&!:|&):|:&&####&####|4##|4444]4;4]4(4;4(44(((]((((;@.",
"{%1111!1):!--&&&&!&!_|&|_##||#######;4_44;_;4_4;4;(;(]](((((((3(==>.",
"{/1::1:1&1:::&!&&&&&|:#:#&#&&##4#_4##_444444;4;4(4(4(4(;((((((((((>.",
"{%1&!:::-:!&&&&&&&&&&|#|#&####_###;#;#__;4444444(4(];(;(](((=(((=(@.",
"{/1111:1&1:!&&&|!&!&&&##_&######4#4#4;4__4;;;4;4(](;((((](((=(===(>[",
"{/-1--!:-:&&!&&!|!#&4&#|#&#_4###4#;444;;;;444;(;(](4;(((((=(=(====>.",
"{/&1&:-1&!&&&|&&|&#&_&#&###__#4_4#4;;4444;;;(4(;(4((((((((=(=(((==>.",
"{%1&&1&:&&&&!&#&&|#&#&#######_4#44;_4#4;;444;(;4((((((((=(((((=(=(>.",
"{%:-&-&&!&!&|!|&&|#|#|########4_44;_;444;(4;(](4(((((((==((==(====>.",
"{/&-::&!&!&!&!&##&###4#4#44#444#4;4;4;;;44(;]((4](](]=((((===(===(>.",
"{/&--&!:|&&#||#|#_#!##|;|__4__;4;4;4;44(4;(;(](((((((====(=(======>.",
"{/&:&|:|:#&#&#&&###&#4###44#4#4;4#4;4;44((44;4((((((((((((=(==(===>.",
"{/&&!&|:|#!#||||||###]_4#__444;4;4]4;4;;;((((((](((======(=(=(3(@=~.",
"{%&&:!&):!&#&&#######|#4#4#44;4;4;4;4(4(((;4((((((((((==((=3(@(@(=>.",
"{/|&!:|_|#!##4#_##4]_;#_#;4;;4;4](]44(((]](((](((3(=(========(=@=@>.",
"{/&&&#&#&#&#_###4##4#4#44#44#4444;4(4(4(4;((((((((((==((==(@(@(===>.",
"{/|&&#!#!#|#||##__###]#44;_;44;4;44(;(;((((((((3(3(3(=(====(=@=@==~.",
"{/&&&|&#&#|##_###4#4#444;4;_4;444(4(](4;((]((((((===========(@=@==~.",
"{/(=((((((===========333@3@@@3@@@@@@@@@@@>@>>>>>@>>>>>>>>>>~>~~>~~~.",
"4@[~[[~[[[[[[[[[[[[[[[[[[[[[[[[[[[.[.[.[[..[[[[....................."};
