/* XPM */
static char * separator_un_xpm[] = {
"2 14 3 1",
" 	c None",
".	c #AEABBA",
"+	c #696774",
".+",
".+",
".+",
".+",
".+",
".+",
".+",
".+",
".+",
".+",
".+",
".+",
".+",
".+"};
