/* XPM */
static char * side_un_xpm[] = {
"20 3 3 1",
" 	c None",
".	c #000000",
"+	c #B7B7B7",
"....................",
".++++++++++++++++++.",
"...................."};
