/* XPM */
static char * top_xpm[] = {
"19 3 4 1",
" 	c None",
".	c #000000",
"+	c #D0D0D0",
"@	c #8F8F8F",
"...................",
"+++++++++++++++++++",
"@@@@@@@@@@@@@@@@@@@"};
