/* XPM */
static char * win_fo_xpm[] = {
"10 14 4 1",
" 	c None",
".	c #9D91A3",
"+	c #48394F",
"@	c #362B3A",
"..........",
"++++++++++",
"++++++++++",
"++++++++++",
"++++++++++",
"++++++++++",
"++++++++++",
"++++++++++",
"++++++++++",
"++++++++++",
"++++++++++",
"++++++++++",
"++++++++++",
"@@@@@@@@@@"};
