/* XPM */
static char * win_un_xpm[] = {
"11 14 4 1",
" 	c None",
".	c #A0A0A0",
"+	c #505050",
"@	c #2D2D2D",
"...........",
"+++++++++++",
"+++++++++++",
"+++++++++++",
"+++++++++++",
"+++++++++++",
"+++++++++++",
"+++++++++++",
"+++++++++++",
"+++++++++++",
"+++++++++++",
"+++++++++++",
"+++++++++++",
"@@@@@@@@@@@"};
