/* XPM */
static char * win_fo_sel_xpm[] = {
"10 14 4 1",
" 	c None",
".	c #9D91A3",
"+	c #62456D",
"@	c #362B3A",
"..........",
"++++++++++",
"++++++++++",
"++++++++++",
"++++++++++",
"++++++++++",
"++++++++++",
"++++++++++",
"++++++++++",
"++++++++++",
"++++++++++",
"++++++++++",
"++++++++++",
"@@@@@@@@@@"};
