/* XPM */
static char * win_unfocus_xpm[] = {
"16 14 8 1",
" 	c None",
".	c #848484",
"+	c #7D7D7D",
"@	c #7C7C7C",
"#	c #7B7B7B",
"$	c #838383",
"%	c #7A7A7A",
"&	c #828282",
"................",
"++++++++++++++++",
"++++++++++++++++",
"................",
"++++++++++++++++",
"@@@@@@@@@@@@@@@@",
"................",
"++++++++++++++++",
"################",
"$$$$$$$$$$$$$$$$",
"################",
"%%%%%%%%%%%%%%%%",
"&&&&&&&&&&&&&&&&",
"################"};
