/* XPM */
static char * win_select_xpm[] = {
"16 14 7 1",
" 	c None",
".	c #7B729A",
"+	c #766D93",
"@	c #746B93",
"#	c #736A92",
"$	c #726991",
"%	c #797199",
"................",
"++++++++++++++++",
"++++++++++++++++",
"................",
"++++++++++++++++",
"@@@@@@@@@@@@@@@@",
"................",
"++++++++++++++++",
"################",
"................",
"################",
"$$$$$$$$$$$$$$$$",
"%%%%%%%%%%%%%%%%",
"################"};
