/* XPM */
static char * top_xpm[] = {
"19 3 3 1",
" 	c None",
".	c #000000",
"+	c #B5B5B5",
"...................",
"+++++++++++++++++++",
"..................."};
