/* XPM */
static char * bd_vrt_xpm[] = {
"3 15 3 1",
" 	c None",
".	c #000000",
"+	c #B5B5B5",
".+.",
".+.",
".+.",
".+.",
".+.",
".+.",
".+.",
".+.",
".+.",
".+.",
".+.",
".+.",
".+.",
".+.",
".+."};
