/* XPM */
static char * fo_btn_ma_xpm[] = {
"10 10 3 1",
" 	c None",
".	c #000000",
"+	c #FFFFFF",
".+++++++++",
".+.......+",
".+.+++++.+",
".+.+++++.+",
".+.+++++.+",
".+.+++++.+",
".+.+++++.+",
".+.+++++.+",
".+.......+",
".+++++++++"};
